<svg width="50" height="50" viewBox="0 0 50 50" fill="none" xmlns="http://www.w3.org/2000/svg">
<rect width="50" height="50" fill="white"/>
<path d="M13.5 36.35C11.7033 36.35 10.14 36.0467 8.81 35.44C7.48 34.8333 6.45333 33.9817 5.73 32.885C5.00667 31.7883 4.645 30.4933 4.645 29H9.895C9.895 29.8633 10.2217 30.5517 10.875 31.065C11.5517 31.555 12.4617 31.8 13.605 31.8C14.7017 31.8 15.5533 31.555 16.16 31.065C16.79 30.575 17.105 29.8983 17.105 29.035C17.105 28.2883 16.8717 27.6467 16.405 27.11C15.9383 26.5733 15.285 26.2117 14.445 26.025L11.855 25.43C9.685 24.9167 7.99333 23.9717 6.78 22.595C5.59 21.195 4.995 19.4917 4.995 17.485C4.995 15.9917 5.33333 14.6967 6.01 13.6C6.71 12.48 7.69 11.6167 8.95 11.01C10.21 10.4033 11.7033 10.1 13.43 10.1C16.0433 10.1 18.1083 10.7533 19.625 12.06C21.165 13.3433 21.935 15.0817 21.935 17.275H16.685C16.685 16.4583 16.3933 15.8167 15.81 15.35C15.25 14.8833 14.4333 14.65 13.36 14.65C12.3567 14.65 11.5867 14.8833 11.05 15.35C10.5133 15.7933 10.245 16.435 10.245 17.275C10.245 18.0217 10.455 18.6633 10.875 19.2C11.3183 19.7133 11.9367 20.0633 12.73 20.25L15.46 20.88C17.7233 21.3933 19.4383 22.3267 20.605 23.68C21.7717 25.01 22.355 26.7133 22.355 28.79C22.355 30.2833 21.9817 31.6017 21.235 32.745C20.5117 33.8883 19.485 34.775 18.155 35.405C16.8483 36.035 15.2967 36.35 13.5 36.35Z" fill="black"/>
<path d="M36.5 36.35C34.7033 36.35 33.14 36.0467 31.81 35.44C30.48 34.8333 29.4533 33.9817 28.73 32.885C28.0067 31.7883 27.645 30.4933 27.645 29H32.895C32.895 29.8633 33.2217 30.5517 33.875 31.065C34.5517 31.555 35.4617 31.8 36.605 31.8C37.7017 31.8 38.5533 31.555 39.16 31.065C39.79 30.575 40.105 29.8983 40.105 29.035C40.105 28.2883 39.8717 27.6467 39.405 27.11C38.9383 26.5733 38.285 26.2117 37.445 26.025L34.855 25.43C32.685 24.9167 30.9933 23.9717 29.78 22.595C28.59 21.195 27.995 19.4917 27.995 17.485C27.995 15.9917 28.3333 14.6967 29.01 13.6C29.71 12.48 30.69 11.6167 31.95 11.01C33.21 10.4033 34.7033 10.1 36.43 10.1C39.0433 10.1 41.1083 10.7533 42.625 12.06C44.165 13.3433 44.935 15.0817 44.935 17.275H39.685C39.685 16.4583 39.3933 15.8167 38.81 15.35C38.25 14.8833 37.4333 14.65 36.36 14.65C35.3567 14.65 34.5867 14.8833 34.05 15.35C33.5133 15.7933 33.245 16.435 33.245 17.275C33.245 18.0217 33.455 18.6633 33.875 19.2C34.3183 19.7133 34.9367 20.0633 35.73 20.25L38.46 20.88C40.7233 21.3933 42.4383 22.3267 43.605 23.68C44.7717 25.01 45.355 26.7133 45.355 28.79C45.355 30.2833 44.9817 31.6017 44.235 32.745C43.5117 33.8883 42.485 34.775 41.155 35.405C39.8483 36.035 38.2967 36.35 36.5 36.35Z" fill="#5850EC"/>
</svg>
